<svg width="1500" height="1480" viewBox="0 0 1500 1480" fill="none" xmlns="http://www.w3.org/2000/svg">
<g filter="url(#filter0_d_26_2)">
<path d="M83.6 791.625C59.2 791.625 40.1333 785.558 26.4 773.425C12.8 761.158 6 743.025 6 719.025C6 695.158 12.9333 677.158 26.8 665.025C40.8 652.758 61.0667 646.625 87.6 646.625H163.6V672.625H89.8C72.3333 672.625 59.4 676.292 51 683.625C42.7333 690.958 38.6 702.758 38.6 719.025C38.6 734.492 42.2667 745.958 49.6 753.425C56.9333 760.758 67.6667 764.758 81.8 765.425V709.825H171.4V791.625H83.6ZM111.8 765.625H139.4V735.825H111.8V765.625ZM199.352 790.625V647.625H356.152V673.625H231.352V705.225H344.552V731.225H231.352V764.625H356.152V790.625H199.352ZM378.063 790.625V647.625H410.463L511.663 750.425V647.625H543.663V790.625H511.263L410.063 687.625V790.625H378.063ZM661.739 790.625C657.339 790.625 653.272 789.558 649.539 787.425C645.939 785.292 643.072 782.425 640.939 778.825C638.806 775.092 637.739 771.025 637.739 766.625V761.025H653.939V766.625C653.939 768.758 654.672 770.625 656.139 772.225C657.739 773.692 659.606 774.425 661.739 774.425H757.739C759.872 774.425 761.672 773.692 763.139 772.225C764.739 770.625 765.539 768.758 765.539 766.625V734.425C765.539 732.292 764.739 730.492 763.139 729.025C761.672 727.558 759.872 726.825 757.739 726.825H661.739C657.339 726.825 653.272 725.758 649.539 723.625C645.939 721.358 643.072 718.425 640.939 714.825C638.806 711.225 637.739 707.225 637.739 702.825V670.625C637.739 666.225 638.806 662.225 640.939 658.625C643.072 654.892 645.939 651.958 649.539 649.825C653.272 647.692 657.339 646.625 661.739 646.625H757.739C762.139 646.625 766.139 647.692 769.739 649.825C773.472 651.958 776.406 654.892 778.539 658.625C780.672 662.225 781.739 666.225 781.739 670.625V676.225H765.539V670.625C765.539 668.492 764.739 666.692 763.139 665.225C761.672 663.625 759.872 662.825 757.739 662.825H661.739C659.606 662.825 657.739 663.625 656.139 665.225C654.672 666.692 653.939 668.492 653.939 670.625V702.825C653.939 704.958 654.672 706.758 656.139 708.225C657.739 709.692 659.606 710.425 661.739 710.425H757.739C762.139 710.425 766.139 711.558 769.739 713.825C773.472 715.958 776.406 718.825 778.539 722.425C780.672 726.025 781.739 730.025 781.739 734.425V766.625C781.739 771.025 780.672 775.092 778.539 778.825C776.406 782.425 773.472 785.292 769.739 787.425C766.139 789.558 762.139 790.625 757.739 790.625H661.739ZM862.639 790.625V736.425L796.439 646.625H815.039L870.839 717.025L926.039 646.625H945.039L878.839 736.425V790.625H862.639ZM962.372 790.625V646.625H984.572L1090.17 772.225V646.625H1106.37V790.625H1084.17L978.572 665.025V790.625H962.372ZM1185.58 790.625V662.825H1121.58V646.625H1265.58V662.825H1201.78V790.625H1185.58ZM1280.74 790.625V646.625H1296.94V710.425H1411.94V646.625H1428.34V790.625H1411.94V726.825H1296.94V790.625H1280.74Z" fill="white"/>
</g>
<g filter="url(#filter1_d_26_2)">
<path d="M1085.52 132.316C1096.36 121.847 1113.35 135.115 1105.81 148.166L852.033 587.75C849.711 591.772 845.419 594.25 840.774 594.25H639.555C627.865 594.25 622.115 580.023 630.522 571.9L1085.52 132.316Z" stroke="white" stroke-width="24" shape-rendering="crispEdges"/>
</g>
<g filter="url(#filter2_d_26_2)">
<path d="M456.537 1315.06C448.807 1328.24 466.228 1341.64 476.988 1330.78L918.453 885.191C926.583 876.984 920.77 863.041 909.217 863.041H728.909C724.295 863.041 720.026 865.487 717.693 869.468L456.537 1315.06Z" stroke="white" stroke-width="24" shape-rendering="crispEdges"/>
</g>
<defs>
<filter id="filter0_d_26_2" x="2.2" y="646.625" width="1449.94" height="172.8" filterUnits="userSpaceOnUse" color-interpolation-filters="sRGB">
<feFlood flood-opacity="0" result="BackgroundImageFix"/>
<feColorMatrix in="SourceAlpha" type="matrix" values="0 0 0 0 0 0 0 0 0 0 0 0 0 0 0 0 0 0 127 0" result="hardAlpha"/>
<feOffset dx="10" dy="14"/>
<feGaussianBlur stdDeviation="6.9"/>
<feComposite in2="hardAlpha" operator="out"/>
<feColorMatrix type="matrix" values="0 0 0 0 0 0 0 0 0 0 0 0 0 0 0 0 0 0 0.25 0"/>
<feBlend mode="normal" in2="BackgroundImageFix" result="effect1_dropShadow_26_2"/>
<feBlend mode="normal" in="SourceGraphic" in2="effect1_dropShadow_26_2" result="shape"/>
</filter>
<filter id="filter1_d_26_2" x="610.704" y="116.424" width="532.892" height="517.626" filterUnits="userSpaceOnUse" color-interpolation-filters="sRGB">
<feFlood flood-opacity="0" result="BackgroundImageFix"/>
<feColorMatrix in="SourceAlpha" type="matrix" values="0 0 0 0 0 0 0 0 0 0 0 0 0 0 0 0 0 0 127 0" result="hardAlpha"/>
<feOffset dx="10" dy="14"/>
<feGaussianBlur stdDeviation="6.9"/>
<feComposite in2="hardAlpha" operator="out"/>
<feColorMatrix type="matrix" values="0 0 0 0 0 0 0 0 0 0 0 0 0 0 0 0 0 0 0.25 0"/>
<feBlend mode="normal" in2="BackgroundImageFix" result="effect1_dropShadow_26_2"/>
<feBlend mode="normal" in="SourceGraphic" in2="effect1_dropShadow_26_2" result="shape"/>
</filter>
<filter id="filter2_d_26_2" x="438.695" y="851.042" width="519.372" height="523.641" filterUnits="userSpaceOnUse" color-interpolation-filters="sRGB">
<feFlood flood-opacity="0" result="BackgroundImageFix"/>
<feColorMatrix in="SourceAlpha" type="matrix" values="0 0 0 0 0 0 0 0 0 0 0 0 0 0 0 0 0 0 127 0" result="hardAlpha"/>
<feOffset dx="10" dy="14"/>
<feGaussianBlur stdDeviation="6.9"/>
<feComposite in2="hardAlpha" operator="out"/>
<feColorMatrix type="matrix" values="0 0 0 0 0 0 0 0 0 0 0 0 0 0 0 0 0 0 0.25 0"/>
<feBlend mode="normal" in2="BackgroundImageFix" result="effect1_dropShadow_26_2"/>
<feBlend mode="normal" in="SourceGraphic" in2="effect1_dropShadow_26_2" result="shape"/>
</filter>
</defs>
</svg>
